<svg width="208" height="226" viewBox="0 0 208 226" fill="none" xmlns="http://www.w3.org/2000/svg">
<path d="M206 34.0747L104 78.1743V223.674L205.5 166.674L206 34.0747Z" fill="#FFB000"/>
<path d="M1.5 34.0747L103.5 78.5747V224.075L1.5 167.075V34.0747Z" fill="#FFB000"/>
<path d="M104.5 1.57469L2 34.4679L103.5 78.5747L205.5 34.0747L104.5 1.57469Z" fill="#0A0A0A"/>
<path d="M205.882 34.0747V167.075L103.691 224.075L1.5 167.075V34.3726L104.5 1.57469L205.882 34.0747ZM1.5 34.3726L103.691 78.5747M103.691 224.075V78.5747M205.882 34.0747L103.691 78.5747" stroke="#0A0A0A" stroke-width="3"/>
<path d="M30.007 158.752L34.4065 82.0589L44.5 86.0747L40 153.075L69.9636 165.354L69.5078 173.698L30.007 158.752Z" fill="#0A0A0A"/>
<path fill-rule="evenodd" clip-rule="evenodd" d="M132.5 90.525L136.778 172.418C136.778 172.418 139.384 171.148 140.778 170.418C141.857 169.853 142.576 169.505 143.317 169.146C144.012 168.809 144.727 168.462 145.778 167.918C150.87 165.284 157.264 162.506 159.145 161.85C161.025 161.194 162.83 160.345 164.558 159.303C166.344 158.18 167.947 156.886 169.367 155.42C170.773 153.888 171.93 152.233 172.839 150.454C173.807 148.594 174.474 146.725 174.841 144.846C175.195 142.902 175.341 141.033 175.278 139.242C175.247 137.236 175.001 135.273 174.54 133.353C174.079 131.434 173.287 129.72 172.164 128.211C171.112 126.688 169.778 125.43 168.161 124.437C166.532 123.377 164.741 122.627 162.789 122.187C164.316 121.255 165.659 120.152 166.819 118.878C168.05 117.589 169.04 116.21 169.788 114.741C170.607 113.258 171.12 111.732 171.326 110.164C171.604 108.582 171.732 106.995 171.709 105.403C171.692 103.464 171.459 101.568 171.012 99.7147C170.636 97.8474 169.958 96.145 168.977 94.6075C168.069 93.0556 166.9 91.6948 165.472 90.5251C164.116 89.3409 162.526 88.4811 160.704 87.9458C158.954 87.3961 157.078 87.1492 155.077 87.2051L132.5 90.525ZM142.367 121.822L151.285 120.027C152.79 119.724 154.283 119.181 155.765 118.397C157.305 117.532 158.541 116.45 159.472 115.152C160.39 113.788 161.031 112.341 161.394 110.81C161.756 109.28 161.933 107.753 161.925 106.228C161.916 104.703 161.692 103.221 161.253 101.783C160.873 100.264 160.168 98.9829 159.138 97.9412C158.167 96.8182 156.905 96.1009 155.351 95.7891C153.797 95.4773 152.233 95.48 150.657 95.7972L140.278 97.9412L142.367 121.822ZM150.778 156.418C149.278 156.918 143.278 159.303 143.278 159.303L142.581 130.106L150.962 128.419C152.252 128.16 153.532 128.041 154.804 128.062C156.133 128.003 157.36 128.172 158.484 128.571C159.666 128.888 160.702 129.408 161.593 130.131C162.555 130.839 163.294 131.731 163.809 132.807C164.382 133.802 164.789 134.9 165.031 136.1C165.33 137.22 165.494 138.401 165.52 139.645C165.534 140.822 165.446 142.054 165.258 143.341C165.057 144.561 164.662 145.75 164.076 146.909C163.561 148.054 162.847 149.134 161.933 150.151C161.006 151.101 159.988 151.965 158.877 152.744C157.825 153.441 156.674 154.02 155.425 154.48C154.846 154.664 154.086 155.009 153.286 155.372C152.44 155.756 151.549 156.161 150.778 156.418Z" fill="#0A0A0A" fill-opacity="0.941176"/>
</svg>
